<svg preserveAspectRatio="none" width="100%" height="100%" overflow="visible" style="display: block;" viewBox="0 0 40.32 40.32" fill="none" xmlns="http://www.w3.org/2000/svg">
<g id="Frame" clip-path="url(#clip0_0_7)">
<path id="Vector" d="M26.521 19.3141H12.9791C12.6279 19.3141 12.2911 19.1745 12.0427 18.9262C11.7943 18.6778 11.6548 18.341 11.6548 17.9897C11.6548 17.6385 11.7943 17.3016 12.0427 17.0533C12.2911 16.8049 12.6279 16.6654 12.9791 16.6654H26.521C26.8722 16.6654 27.2091 16.8049 27.4574 17.0533C27.7058 17.3016 27.8453 17.6385 27.8453 17.9897C27.8453 18.341 27.7058 18.6778 27.4574 18.9262C27.2091 19.1745 26.8722 19.3141 26.521 19.3141ZM26.521 25.3539H12.9791C12.6279 25.3539 12.2911 25.2144 12.0427 24.966C11.7943 24.7177 11.6548 24.3808 11.6548 24.0296C11.6548 23.6784 11.7943 23.3415 12.0427 23.0931C12.2911 22.8448 12.6279 22.7053 12.9791 22.7053H26.521C26.8722 22.7053 27.2091 22.8448 27.4574 23.0931C27.7058 23.3415 27.8453 23.6784 27.8453 24.0296C27.8453 24.3808 27.7058 24.7177 27.4574 24.966C27.2091 25.2144 26.8722 25.3539 26.521 25.3539Z" fill="var(--fill-0, #07385E)"/>
<path id="Vector_2" d="M20.0948 32.1858C19.9209 32.1858 19.7486 32.1515 19.588 32.085C19.4273 32.0184 19.2813 31.9209 19.1583 31.7979C19.0353 31.6749 18.9378 31.5289 18.8712 31.3682C18.8047 31.2076 18.7704 31.0353 18.7704 30.8614V17.9897C18.7704 17.6385 18.91 17.3016 19.1583 17.0533C19.4067 16.8049 19.7435 16.6654 20.0948 16.6654C20.446 16.6654 20.7829 16.8049 21.0312 17.0533C21.2796 17.3016 21.4191 17.6385 21.4191 17.9897V30.8614C21.4191 31.0353 21.3849 31.2076 21.3183 31.3682C21.2517 31.5289 21.1542 31.6749 21.0312 31.7979C20.9082 31.9209 20.7623 32.0184 20.6016 32.085C20.4409 32.1515 20.2687 32.1858 20.0948 32.1858Z" fill="var(--fill-0, #07385E)"/>
<path id="Vector_3" d="M19.6039 18.5347C19.43 18.5348 19.2577 18.5006 19.097 18.4341C18.9363 18.3676 18.7902 18.2701 18.6672 18.1471L12.1435 11.6199C12.017 11.4977 11.9161 11.3516 11.8467 11.19C11.7773 11.0285 11.7408 10.8547 11.7392 10.6788C11.7377 10.503 11.7712 10.3286 11.8378 10.1658C11.9044 10.0031 12.0027 9.85522 12.1271 9.73088C12.2514 9.60653 12.3993 9.5082 12.562 9.44161C12.7248 9.37502 12.8992 9.34151 13.075 9.34304C13.2509 9.34457 13.4247 9.3811 13.5862 9.45051C13.7478 9.51991 13.8939 9.62081 14.0161 9.74729L20.5433 16.2745C20.7285 16.4599 20.8545 16.6961 20.9054 16.9532C20.9563 17.2103 20.9298 17.4767 20.8292 17.7187C20.7286 17.9607 20.5585 18.1674 20.3404 18.3126C20.1223 18.4579 19.866 18.5352 19.6039 18.5347Z" fill="var(--fill-0, #07385E)"/>
<path id="Vector_4" d="M20.5805 18.6292C20.3185 18.6293 20.0623 18.5517 19.8444 18.4062C19.6266 18.2607 19.4567 18.0538 19.3564 17.8118C19.2561 17.5697 19.2299 17.3033 19.2811 17.0463C19.3322 16.7894 19.4584 16.5533 19.6438 16.3681L26.171 9.8409C26.2932 9.71441 26.4393 9.61352 26.6009 9.54411C26.7625 9.4747 26.9362 9.43817 27.1121 9.43664C27.2879 9.43511 27.4623 9.46862 27.6251 9.53521C27.7878 9.6018 27.9357 9.70014 28.06 9.82448C28.1844 9.94883 28.2827 10.0967 28.3493 10.2594C28.4159 10.4222 28.4494 10.5966 28.4479 10.7724C28.4464 10.9483 28.4098 11.1221 28.3404 11.2836C28.271 11.4452 28.1701 11.5913 28.0436 11.7135L21.5164 18.2407C21.2683 18.4892 20.9316 18.6289 20.5805 18.6292Z" fill="var(--fill-0, #07385E)"/>
<path id="Vector_5" d="M1.84691 17.8053C1.63839 17.8055 1.43241 17.7595 1.24375 17.6707C1.0551 17.5819 0.888448 17.4524 0.755768 17.2915C0.623089 17.1306 0.52767 16.9424 0.476361 16.7403C0.425052 16.5382 0.419125 16.3272 0.459005 16.1225C2.27512 6.78062 10.509 -4.95911e-06 20.0442 -4.95911e-06C24.6387 0.000265661 29.0923 1.58556 32.6536 4.48833C36.2149 7.3911 38.6657 11.4336 39.5924 15.9336C39.6676 16.3006 39.5938 16.6825 39.3875 16.9952C39.1811 17.3079 38.8589 17.5258 38.4919 17.6009C38.1248 17.6761 37.743 17.6024 37.4303 17.396C37.1176 17.1896 36.8997 16.8674 36.8245 16.5004C36.0284 12.6381 33.9244 9.16862 30.8674 6.67735C27.8105 4.18609 23.9878 2.82554 20.0442 2.82526C11.8616 2.82526 4.79137 8.64441 3.23129 16.6629C3.16868 16.9842 2.99639 17.2738 2.74388 17.4822C2.49136 17.6906 2.17431 17.8048 1.84691 17.8053Z" fill="var(--fill-0, #07385E)"/>
<path id="Vector_6" d="M1.88479 17.894C1.5605 17.8925 1.24661 17.7795 0.995802 17.5739C0.744995 17.3684 0.572549 17.0828 0.507419 16.7651C0.442289 16.4474 0.488441 16.117 0.638125 15.8293C0.787809 15.5417 1.03191 15.3143 1.32945 15.1853L5.98053 13.1811C6.15101 13.1075 6.33433 13.0682 6.52 13.0655C6.70567 13.0628 6.89006 13.0967 7.06261 13.1654C7.23516 13.234 7.39249 13.3359 7.52561 13.4654C7.65874 13.5948 7.76503 13.7493 7.83842 13.9198C7.91182 14.0904 7.95087 14.2738 7.95334 14.4595C7.95581 14.6451 7.92166 14.8295 7.85284 15.0019C7.78401 15.1744 7.68187 15.3316 7.55224 15.4646C7.42262 15.5975 7.26805 15.7036 7.09739 15.7768L2.44277 17.7792C2.2665 17.855 2.07665 17.894 1.88479 17.894ZM20.2763 40.3195C15.6819 40.3192 11.2283 38.7339 7.667 35.8312C4.10573 32.9284 1.65492 28.8859 0.728195 24.3859C0.690977 24.2042 0.68992 24.0169 0.725085 23.8347C0.760249 23.6526 0.830947 23.4791 0.93314 23.3243C1.03533 23.1695 1.16702 23.0363 1.32069 22.9324C1.47435 22.8284 1.64698 22.7558 1.82872 22.7186C2.01046 22.6814 2.19776 22.6803 2.3799 22.7155C2.56205 22.7506 2.73549 22.8213 2.89032 22.9235C3.04515 23.0257 3.17833 23.1574 3.28227 23.3111C3.3862 23.4647 3.45885 23.6374 3.49607 23.8191C4.29221 27.6814 6.39624 31.1509 9.45319 33.6421C12.5101 36.1334 16.3328 37.494 20.2763 37.4942C28.459 37.4942 35.5292 31.6751 37.0884 23.6566C37.1224 23.4732 37.1924 23.2983 37.2944 23.1421C37.3963 22.9859 37.5282 22.8514 37.6824 22.7464C37.8367 22.6414 38.0101 22.568 38.1929 22.5304C38.3756 22.4929 38.564 22.4919 38.7471 22.5275C38.9302 22.5631 39.1045 22.6347 39.2598 22.738C39.4152 22.8413 39.5485 22.9744 39.6521 23.1295C39.7557 23.2847 39.8276 23.4588 39.8635 23.6419C39.8995 23.8249 39.8988 24.0133 39.8616 24.1961C38.0455 33.5389 29.8081 40.3195 20.2763 40.3195Z" fill="var(--fill-0, #07385E)"/>
<path id="Vector_7" d="M33.7861 27.253C33.4608 27.2532 33.1454 27.1412 32.8931 26.9358C32.6408 26.7304 32.4672 26.4442 32.4015 26.1256C32.3358 25.807 32.3821 25.4755 32.5325 25.187C32.683 24.8986 32.9284 24.6709 33.2273 24.5425L37.8819 22.5401C38.0527 22.4636 38.2371 22.4219 38.4243 22.4174C38.6114 22.4128 38.7976 22.4455 38.972 22.5135C39.1464 22.5815 39.3055 22.6835 39.4401 22.8136C39.5748 22.9436 39.6822 23.0991 39.7562 23.2711C39.8302 23.443 39.8693 23.628 39.8712 23.8151C39.8731 24.0023 39.8378 24.188 39.7674 24.3614C39.6969 24.5349 39.5926 24.6925 39.4607 24.8253C39.3287 24.9581 39.1717 25.0633 38.9987 25.1349L34.3441 27.1373C34.1679 27.2134 33.978 27.2527 33.7861 27.253Z" fill="var(--fill-0, #07385E)"/>
</g>
<defs>
<clipPath id="clip0_0_7">
<rect width="40.32" height="40.32" fill="white"/>
</clipPath>
</defs>
</svg>
