<svg preserveAspectRatio="none" width="100%" height="100%" overflow="visible" style="display: block;" viewBox="0 0 40.32 40.32" fill="none" xmlns="http://www.w3.org/2000/svg">
<g id="Frame">
<path id="Vector" d="M37.0738 37.5281H2.97319C2.30791 37.5281 1.76359 36.9838 1.76359 36.3185C1.76359 35.6532 2.30791 35.1089 2.97319 35.1089H37.0738C37.7391 35.1089 38.2834 35.6532 38.2834 36.3185C38.2834 36.9838 37.7492 37.5281 37.0738 37.5281Z" fill="var(--fill-0, #07385E)"/>
<path id="Vector_2" d="M20.0981 37.3764C19.4329 37.3764 18.8885 36.832 18.8885 36.1668V5.94693L8.56662 12.3477C8.1231 12.6199 7.86102 13.0937 7.86102 13.6077V36.0962C7.86102 36.7615 7.3167 37.3058 6.65142 37.3058C5.98614 37.3058 5.44182 36.7615 5.44182 36.0962V13.5977C5.44182 12.2369 6.12726 10.997 7.28646 10.2813L18.3946 3.40677C18.9793 3.04389 19.7252 3.02373 20.33 3.36645C20.9348 3.69909 21.3077 4.34421 21.3077 5.02965V36.1668C21.3077 36.832 20.7735 37.3764 20.0981 37.3764Z" fill="var(--fill-0, #07385E)"/>
<path id="Vector_3" d="M34.0107 37.0745C33.3454 37.0745 32.8011 36.5302 32.8011 35.8649V17.7411C32.8011 17.2371 32.5289 16.7633 32.0955 16.5012L19.7878 9.17305C19.2132 8.83033 19.0217 8.08441 19.3644 7.51993C19.7072 6.94537 20.4531 6.75385 21.0276 7.09657L33.3353 14.4147C34.4945 15.1102 35.2203 16.3803 35.2203 17.731V35.8548C35.2203 36.5302 34.676 37.0745 34.0107 37.0745ZM16.028 18.8902H10.8368C10.1715 18.8902 9.62717 18.3459 9.62717 17.6806C9.62717 17.0153 10.1715 16.471 10.8368 16.471H16.028C16.6932 16.471 17.2376 17.0153 17.2376 17.6806C17.2376 18.3459 16.6932 18.8902 16.028 18.8902ZM16.028 24.8979H10.8368C10.1715 24.8979 9.62717 24.3535 9.62717 23.6883C9.62717 23.023 10.1715 22.4787 10.8368 22.4787H16.028C16.6932 22.4787 17.2376 23.023 17.2376 23.6883C17.2376 24.3535 16.6932 24.8979 16.028 24.8979ZM16.028 30.9055H10.8368C10.1715 30.9055 9.62717 30.3612 9.62717 29.6959C9.62717 29.0307 10.1715 28.4863 10.8368 28.4863H16.028C16.6932 28.4863 17.2376 29.0307 17.2376 29.6959C17.2376 30.3612 16.6932 30.9055 16.028 30.9055Z" fill="var(--fill-0, #07385E)"/>
<path id="Vector_4" d="M29.1623 22.7506H23.9711C23.3059 22.7506 22.7615 22.2063 22.7615 21.541C22.7615 20.8757 23.3059 20.3314 23.9711 20.3314H29.1623C29.8276 20.3314 30.3719 20.8757 30.3719 21.541C30.3719 22.2063 29.8377 22.7506 29.1623 22.7506ZM29.1623 29.2623H23.9711C23.3059 29.2623 22.7615 28.718 22.7615 28.0527C22.7615 27.3874 23.3059 26.8431 23.9711 26.8431H29.1623C29.8276 26.8431 30.3719 27.3874 30.3719 28.0527C30.3719 28.718 29.8377 29.2623 29.1623 29.2623Z" fill="var(--fill-0, #07385E)"/>
</g>
</svg>
