<svg preserveAspectRatio="none" width="100%" height="100%" overflow="visible" style="display: block;" viewBox="0 0 40.32 40.32" fill="none" xmlns="http://www.w3.org/2000/svg">
<g id="Frame" clip-path="url(#clip0_0_24)">
<path id="Vector" d="M4.6368 33.0221C5.56416 32.7701 6.34433 32.1612 6.82211 31.3528C9.07112 34.0327 12.0753 35.9729 15.443 36.9207C18.8107 37.8684 22.3858 37.7796 25.7024 36.666C29.0189 35.5524 31.9231 33.4655 34.0364 30.6773C36.1497 27.8892 37.3741 24.5291 37.5499 21.035L40.32 20.16C40.32 31.2943 31.2943 40.32 20.16 40.32C17.1946 40.3227 14.2653 39.6698 11.5817 38.4082C8.8981 37.1466 6.52656 35.3073 4.6368 33.0221C4.09299 33.1708 3.52223 33.1921 2.96882 33.0845C2.41541 32.9769 1.89424 32.7432 1.44576 32.4016C0.997287 32.06 0.633566 31.6196 0.382833 31.1147C0.1321 30.6097 0.00109964 30.0538 0 29.49C0.000462285 28.9265 0.130843 28.3707 0.381012 27.8658C0.63118 27.3609 0.994399 26.9205 1.44244 26.5788C1.89048 26.2371 2.41129 26.0033 2.96438 25.8955C3.51746 25.7878 4.08795 25.809 4.63149 25.9576C5.17503 26.1062 5.677 26.3781 6.09838 26.7522C6.51976 27.1263 6.84921 27.5925 7.06113 28.1146C7.27305 28.6368 7.36173 29.2007 7.32027 29.7627C7.27882 30.3246 7.10835 30.8695 6.82211 31.3548C9.07112 34.0347 12.0753 35.9749 15.443 36.9227C18.8107 37.8704 22.3858 37.7816 25.7024 36.668C29.0189 35.5544 31.9231 33.4675 34.0364 30.6793C36.1497 27.8912 37.3741 24.5311 37.5499 21.037L40.32 20.16C40.32 31.2943 31.2943 40.32 20.16 40.32C17.1946 40.3227 14.2653 39.6698 11.5817 38.4082C8.8981 37.1466 6.52656 35.3073 4.6368 33.0221ZM2.77397 19.2205C2.96231 15.7462 4.18726 12.4079 6.29081 9.63631C8.39436 6.86471 11.28 4.78691 14.5757 3.67087C17.8713 2.55483 21.4257 2.45176 24.7804 3.37494C28.1352 4.29812 31.1364 6.20521 33.3971 8.85024L36.1731 7.91076C34.2928 5.44879 31.8695 3.45407 29.092 2.08196C26.3146 0.709849 23.2579 -0.00263065 20.16 7.29857e-06C9.02561 7.29857e-06 0 9.02562 0 20.16L2.77397 19.2205ZM20.16 2.74984C22.677 2.74649 25.1646 3.29032 27.4506 4.34367C29.7366 5.39702 31.7662 6.9347 33.399 8.8502L36.173 7.9108C34.2927 5.44882 31.8695 3.45408 29.092 2.08196C26.3146 0.709849 23.2579 -0.00263065 20.16 7.29857e-06C9.02561 7.29857e-06 0 9.02562 0 20.16L2.77397 19.2205C3.01486 14.7722 4.95163 10.5853 8.18569 7.52153C11.4197 4.45774 15.7051 2.75002 20.16 2.74984ZM20.7607 22.5409L10.9267 28.2199L9.23328 25.2887L11.1989 24.1557L9.50544 21.2244L12.6706 19.3979L14.362 22.3292L19.0693 19.6116C18.652 17.3981 19.5955 14.9103 21.6619 13.7189C24.2806 12.2069 27.6151 13.1383 29.1271 15.757C30.6391 18.3778 29.869 21.678 27.2522 23.19C25.1858 24.3815 22.4743 24.0065 20.7607 22.5409ZM23.4702 16.9162C23.0526 17.1594 22.7481 17.5579 22.6235 18.0249C22.4988 18.4918 22.5641 18.9891 22.805 19.408C23.3049 20.279 24.4258 20.5773 25.2947 20.0753C25.7127 19.8325 26.0176 19.4341 26.1426 18.9671C26.2677 18.5002 26.2027 18.0027 25.962 17.5835C25.7189 17.1659 25.3203 16.8614 24.8534 16.7368C24.3865 16.6121 23.8892 16.6773 23.4702 16.9183V16.9162Z" fill="var(--fill-0, #07385E)"/>
<path id="Vector_2" d="M34.2727 12.0979C33.2034 12.0979 32.1778 11.6731 31.4217 10.9169C30.6655 10.1608 30.2407 9.13523 30.2407 8.06588C30.2407 6.99653 30.6655 5.97097 31.4217 5.21483C32.1778 4.45868 33.2034 4.03388 34.2727 4.03388C35.3421 4.03388 36.3676 4.45868 37.1238 5.21483C37.8799 5.97097 38.3047 6.99653 38.3047 8.06588C38.3047 9.13523 37.8799 10.1608 37.1238 10.9169C36.3676 11.6731 35.3421 12.0979 34.2727 12.0979Z" fill="var(--fill-0, #07385E)"/>
</g>
<defs>
<clipPath id="clip0_0_24">
<rect width="40.32" height="40.32" fill="white"/>
</clipPath>
</defs>
</svg>
