<svg preserveAspectRatio="none" width="100%" height="100%" overflow="visible" style="display: block;" viewBox="0 0 46.08 46.08" fill="none" xmlns="http://www.w3.org/2000/svg">
<g id="Frame">
<path id="Vector" d="M23.0407 3.83806C26.3047 3.83806 29.3321 4.21438 32.0498 4.8427C33.0065 5.0635 33.8585 5.30206 34.5962 5.5411C35.0148 5.67694 35.321 5.78734 35.5073 5.86126C37.4287 6.51886 38.8807 8.64286 38.8807 10.7361V28.0627C38.8807 30.0158 37.7498 32.3611 36.233 33.5126L25.9898 41.2891C24.3252 42.5529 21.7596 42.5558 20.0916 41.2891L9.84838 33.5126C8.3383 32.3659 7.2007 30.0091 7.2007 28.0627V10.7361C7.2007 8.62894 8.64838 6.4963 10.5828 5.8579C10.77 5.78398 11.0733 5.67454 11.4852 5.5411C12.3236 5.272 13.1732 5.03899 14.0316 4.8427C16.7493 4.2139 19.7767 3.83806 23.0407 3.83806ZM23.0407 6.71806C20.0052 6.71806 17.1938 7.0675 14.6805 7.64878C13.8065 7.85038 13.0341 8.06638 12.3732 8.28094C12.1457 8.35438 11.9493 8.42254 11.7857 8.48254C11.693 8.51614 11.6349 8.5387 11.6129 8.54782C11.5761 8.56263 11.5388 8.57592 11.501 8.58766C10.7777 8.81422 10.0807 9.83086 10.0807 10.7361V28.0627C10.0807 29.1201 10.8065 30.624 11.5898 31.2187L21.833 38.9952C22.4709 39.48 23.6119 39.4785 24.2484 38.9952L34.4916 31.2187C35.2807 30.6192 36.0007 29.1269 36.0007 28.0627V10.7361C36.0007 9.84334 35.2975 8.82334 34.5607 8.58142L34.4685 8.54782C34.4113 8.52524 34.3537 8.50347 34.2957 8.48254C34.1321 8.42254 33.9357 8.35438 33.7082 8.28094C32.9485 8.03736 32.1787 7.82645 31.4009 7.64878C28.8876 7.0675 26.0762 6.71806 23.0407 6.71806ZM29.2217 15.3005C29.4915 15.0302 29.8577 14.8782 30.2397 14.8779C30.6216 14.8777 30.988 15.0291 31.2583 15.299C31.5286 15.5689 31.6806 15.9351 31.6808 16.317C31.6811 16.699 31.5296 17.0654 31.2597 17.3357L21.6741 26.9357C21.4045 27.2057 21.0387 27.3577 20.6571 27.3582C20.2755 27.3588 19.9093 27.2078 19.6389 26.9385L14.8245 22.1438C14.6888 22.0108 14.5808 21.8522 14.5067 21.6771C14.4325 21.5021 14.3938 21.3142 14.3927 21.1241C14.3915 20.9341 14.428 20.7457 14.5001 20.5698C14.5721 20.3939 14.6783 20.234 14.8124 20.0994C14.9465 19.9647 15.106 19.8579 15.2815 19.7852C15.4571 19.7124 15.6454 19.6752 15.8354 19.6756C16.0255 19.6759 16.2136 19.7139 16.3889 19.7873C16.5642 19.8608 16.7233 19.9682 16.8569 20.1033L20.6522 23.8829L29.2217 15.3005Z" fill="var(--fill-0, #07385E)"/>
</g>
</svg>
