<svg preserveAspectRatio="none" overflow="visible" style="display: block;" width="14" height="14" viewBox="0 0 14 14" fill="none" xmlns="http://www.w3.org/2000/svg">
<g id="Hero Icon / lock">
<path id="Vector" d="M9.33333 5.83333H4.66667C3.70017 5.83333 2.91667 6.61684 2.91667 7.58333V9.91667C2.91667 10.8832 3.70017 11.6667 4.66667 11.6667H9.33333C10.2998 11.6667 11.0833 10.8832 11.0833 9.91667V7.58333C11.0833 6.61684 10.2998 5.83333 9.33333 5.83333Z" stroke="#708895" stroke-width="1.05"/>
<path id="Vector_2" d="M4.66667 5.83333V4.66667C4.66667 4.04783 4.9125 3.45434 5.35008 3.01675C5.78767 2.57917 6.38116 2.33333 7 2.33333C7.61884 2.33333 8.21233 2.57917 8.64992 3.01675C9.0875 3.45434 9.33333 4.04783 9.33333 4.66667V5.83333" stroke="#708895" stroke-width="1.05" stroke-linecap="round"/>
</g>
</svg>
