<svg preserveAspectRatio="none" overflow="visible" style="display: block;" width="18.1667" height="18.1667" viewBox="0 0 18.1667 18.1667" fill="none" xmlns="http://www.w3.org/2000/svg">
<g id="Group">
<path id="Vector" d="M10.75 5.75H2.41667C1.49619 5.75 0.75 6.49619 0.75 7.41667V15.75C0.75 16.6705 1.49619 17.4167 2.41667 17.4167H10.75C11.6705 17.4167 12.4167 16.6705 12.4167 15.75V7.41667C12.4167 6.49619 11.6705 5.75 10.75 5.75Z" stroke="#426A7C" stroke-width="1.5" stroke-linecap="round" stroke-linejoin="round"/>
<path id="Vector_2" d="M15.75 0.75H10.75C9.82952 0.75 9.08333 1.49619 9.08333 2.41667V7.41667C9.08333 8.33714 9.82952 9.08333 10.75 9.08333H15.75C16.6705 9.08333 17.4167 8.33714 17.4167 7.41667V2.41667C17.4167 1.49619 16.6705 0.75 15.75 0.75Z" stroke="#426A7C" stroke-width="1.5" stroke-linecap="round" stroke-linejoin="round"/>
</g>
</svg>
